<?xml version="1.0" encoding="UTF-8"?>
<svg width="16" height="16" xmlns="http://www.w3.org/2000/svg">
<rect stroke="none" fill="#f51" x="0" y="0" width="16" height="8" />
<rect stroke="none" fill="#e60" x="0" y="8" width="16" height="8" />
<g stroke="none" fill="#000">
	<rect x="0" y="1" width="1" height="1" />
	<rect x="1" y="1" width="1" height="1" />
	<rect x="2" y="1" width="1" height="1" />
	<rect x="4" y="1" width="1" height="1" />
	<rect x="5" y="1" width="1" height="1" />
	<rect x="6" y="1" width="1" height="1" />
	<rect x="8" y="1" width="1" height="1" />
	<rect x="9" y="1" width="1" height="1" />
	<rect x="10" y="1" width="1" height="1" />
	<rect x="12" y="1" width="1" height="1" />
	<rect x="13" y="1" width="1" height="1" />
	<rect x="14" y="1" width="1" height="1" />
	<rect x="0" y="2" width="1" height="1" />
	<rect x="4" y="2" width="1" height="1" />
	<rect x="8" y="2" width="1" height="1" />
	<rect x="10" y="2" width="1" height="1" />
	<rect x="12" y="2" width="1" height="1" />
	<rect x="0" y="3" width="1" height="1" />
	<rect x="1" y="3" width="1" height="1" />
	<rect x="2" y="3" width="1" height="1" />
	<rect x="4" y="3" width="1" height="1" />
	<rect x="5" y="3" width="1" height="1" />
	<rect x="6" y="3" width="1" height="1" />
	<rect x="8" y="3" width="1" height="1" />
	<rect x="10" y="3" width="1" height="1" />
	<rect x="12" y="3" width="1" height="1" />
	<rect x="13" y="3" width="1" height="1" />
	<rect x="14" y="3" width="1" height="1" />
	<rect x="0" y="4" width="1" height="1" />
	<rect x="4" y="4" width="1" height="1" />
	<rect x="8" y="4" width="1" height="1" />
	<rect x="10" y="4" width="1" height="1" />
	<rect x="14" y="4" width="1" height="1" />
	<rect x="0" y="5" width="1" height="1" />
	<rect x="4" y="5" width="1" height="1" />
	<rect x="8" y="5" width="1" height="1" />
	<rect x="9" y="5" width="1" height="1" />
	<rect x="10" y="5" width="1" height="1" />
	<rect x="12" y="5" width="1" height="1" />
	<rect x="13" y="5" width="1" height="1" />
	<rect x="14" y="5" width="1" height="1" />

	<rect x="1" y="10" width="1" height="1" />
	<rect x="4" y="10" width="1" height="1" />
	<rect x="5" y="10" width="1" height="1" />
	<rect x="8" y="10" width="1" height="1" />
	<rect x="9" y="10" width="1" height="1" />
	<rect x="13" y="10" width="1" height="1" />
	<rect x="14" y="10" width="1" height="1" />
	<rect x="0" y="11" width="1" height="1" />
	<rect x="2" y="11" width="1" height="1" />
	<rect x="4" y="11" width="1" height="1" />
	<rect x="6" y="11" width="1" height="1" />
	<rect x="8" y="11" width="1" height="1" />
	<rect x="10" y="11" width="1" height="1" />
	<rect x="12" y="11" width="1" height="1" />
	<rect x="0" y="12" width="1" height="1" />
	<rect x="2" y="12" width="1" height="1" />
	<rect x="4" y="12" width="1" height="1" />
	<rect x="6" y="12" width="1" height="1" />
	<rect x="8" y="12" width="1" height="1" />
	<rect x="10" y="12" width="1" height="1" />
	<rect x="13" y="12" width="1" height="1" />
	<rect x="0" y="13" width="1" height="1" />
	<rect x="1" y="13" width="1" height="1" />
	<rect x="2" y="13" width="1" height="1" />
	<rect x="4" y="13" width="1" height="1" />
	<rect x="5" y="13" width="1" height="1" />
	<rect x="8" y="13" width="1" height="1" />
	<rect x="9" y="13" width="1" height="1" />
	<rect x="14" y="13" width="1" height="1" />
	<rect x="0" y="14" width="1" height="1" />
	<rect x="2" y="14" width="1" height="1" />
	<rect x="4" y="14" width="1" height="1" />
	<rect x="8" y="14" width="1" height="1" />
	<rect x="12" y="14" width="1" height="1" />
	<rect x="13" y="14" width="1" height="1" />
</g>
</svg>
