<?xml version="1.0" encoding="UTF-8"?>
<svg xmlns="http://www.w3.org/2000/svg" width="210" height="210">
<rect x="0" y="0" width="210" height="210" fill="#252c34"/>
<path d="M674 419 c9 8 23 29 31 48 12 29 11 70 -15 345 l-29 313 -71 217 c-67 206 -72 219 -116 262 -61 62 -132 85 -211 68 -96 -20 -153 -79 -174 -181 -10 -49 -9 -67 15 -161 14 -58 62 -220 106 -360 44 -140 83 -270 86 -288 6 -29 4 -32 -20 -32 -14 0 -26 -2 -26 -5 0 -23 56 -204 68 -217 20 -24 40 -26 198 -25 105 2 145 6 158 16z m880 95 c14 84 16 114 7 128 -36 58 28 127 81 85 30 -23 31 -55 4 -82 -28 -28 -32 -64 -19 -185 l6 -62 55 5 c88 9 89 9 152 308 l31 142 -36 59 c-19 33 -35 61 -35 63 0 2 31 29 69 59 l68 55 37 145 c52 209 48 278 -22 357 -28 32 -107 78 -116 68 -2 -2 -37 -99 -76 -214 -70 -202 -97 -270 -85 -215 3 14 27 119 55 234 27 116 48 212 45 214 -10 10 -103 -21 -135 -46 -69 -52 -82 -77 -160 -327 l-63 -200 -27 -300 c-27 -307 -27 -337 7 -377 18 -20 43 -26 98 -24 l40 1 19 109z m-196 248 c13 145 25 282 29 305 l5 43 -352 0 -351 0 7 -83 c3 -45 8 -83 9 -85 1 -2 111 -6 244 -9 132 -3 241 -10 241 -15 0 -4 -109 -8 -241 -8 l-241 0 6 -98 c4 -53 10 -105 12 -115 5 -16 25 -17 235 -17 146 0 229 -4 229 -10 0 -6 -83 -10 -230 -10 -262 0 -235 12 -224 -99 l7 -61 296 0 297 0 22 262z M442 652 c-6 7 -12 31 -14 53 -3 39 -4 40 -45 43 -51 4 -65 20 -61 69 3 38 3 38 53 43 l50 5 3 45 c4 54 16 70 52 70 50 0 60 -9 60 -54 0 -53 13 -66 66 -66 44 0 54 -10 54 -53 0 -37 -17 -51 -67 -56 l-48 -6 -5 -50 -5 -50 -41 -3 c-25 -2 -45 2 -52 10z M1706 763 c-26 19 -24 67 4 89 27 22 39 22 68 2 42 -29 18 -104 -34 -104 -11 0 -28 6 -38 13z M1436 782 c-23 32 -20 54 11 77 40 33 93 7 93 -44 0 -51 -75 -74 -104 -33z M1570 909 c-26 49 1 94 54 89 43 -4 65 -48 42 -84 -21 -31 -80 -34 -96 -5z M926 779 c-49 50 -56 81 -18 81 26 0 105 -83 100 -106 -6 -33 -32 -25 -82 25z M1092 773 c-44 45 -53 73 -26 84 11 4 33 -11 67 -45 43 -43 49 -53 38 -66 -20 -24 -33 -20 -79 27z" transform="scale(0.1,0.1)" fill="#af323d"/>
</svg>
